{
    "asset" : {
        "generator" : "Khronos glTF Blender I/O v1.1.46",
        "version" : "2.0"
    },
    "scene" : 0,
    "scenes" : [
        {
            "name" : "Scene",
            "nodes" : [
                0
            ]
        }
    ],
    "nodes" : [
        {
            "mesh" : 0,
            "name" : "Cylinder002",
            "scale" : [
                0.010000000707805157,
                0.010000000707805157,
                0.010000000707805157
            ]
        }
    ],
    "materials" : [
        {
            "doubleSided" : true,
            "emissiveFactor" : [
                0,
                0,
                0
            ],
            "name" : "02 - Default.002",
            "pbrMetallicRoughness" : {
                "baseColorFactor" : [
                    0.3607843220233917,
                    0.2666666805744171,
                    0.2039215862751007,
                    1
                ],
                "metallicFactor" : 1,
                "roughnessFactor" : 0.858578622341156
            }
        },
        {
            "doubleSided" : true,
            "emissiveFactor" : [
                0,
                0,
                0
            ],
            "name" : "02 - Default.004",
            "pbrMetallicRoughness" : {
                "baseColorFactor" : [
                    0,
                    0,
                    0,
                    1
                ],
                "metallicFactor" : 1,
                "roughnessFactor" : 0.858578622341156
            }
        },
        {
            "doubleSided" : true,
            "emissiveFactor" : [
                0,
                0,
                0
            ],
            "name" : "02 - Default.008",
            "pbrMetallicRoughness" : {
                "baseColorFactor" : [
                    0.6078431606292725,
                    0.5176470875740051,
                    0.32156863808631897,
                    1
                ],
                "metallicFactor" : 1,
                "roughnessFactor" : 0.858578622341156
            }
        },
        {
            "doubleSided" : true,
            "emissiveFactor" : [
                0,
                0,
                0
            ],
            "name" : "02 - Default.010",
            "pbrMetallicRoughness" : {
                "baseColorFactor" : [
                    0.4235294461250305,
                    0.25882354378700256,
                    0.1764705926179886,
                    1
                ],
                "metallicFactor" : 1,
                "roughnessFactor" : 0.858578622341156
            }
        },
        {
            "doubleSided" : true,
            "emissiveFactor" : [
                0,
                0,
                0
            ],
            "name" : "02 - Default.011",
            "pbrMetallicRoughness" : {
                "baseColorFactor" : [
                    0.7058823704719543,
                    0.5333333611488342,
                    0.16470588743686676,
                    1
                ],
                "metallicFactor" : 1,
                "roughnessFactor" : 0.858578622341156
            }
        },
        {
            "doubleSided" : true,
            "emissiveFactor" : [
                0,
                0,
                0
            ],
            "name" : "Material #55.001",
            "pbrMetallicRoughness" : {
                "baseColorFactor" : [
                    0.1725490242242813,
                    0.5686274766921997,
                    0.2352941334247589,
                    1
                ],
                "metallicFactor" : 1,
                "roughnessFactor" : 0.858578622341156
            }
        },
        {
            "doubleSided" : true,
            "emissiveFactor" : [
                0,
                0,
                0
            ],
            "name" : "Material #62.001",
            "pbrMetallicRoughness" : {
                "baseColorFactor" : [
                    0.458823561668396,
                    0.5058823823928833,
                    0.6196078658103943,
                    1
                ],
                "metallicFactor" : 1,
                "roughnessFactor" : 0.858578622341156
            }
        },
        {
            "doubleSided" : true,
            "emissiveFactor" : [
                0,
                0,
                0
            ],
            "name" : "Material #67",
            "pbrMetallicRoughness" : {
                "baseColorFactor" : [
                    0.9058824181556702,
                    0.26274511218070984,
                    0.05098039656877518,
                    1
                ],
                "metallicFactor" : 1,
                "roughnessFactor" : 0.858578622341156
            }
        }
    ],
    "meshes" : [
        {
            "name" : "Mesh",
            "primitives" : [
                {
                    "attributes" : {
                        "POSITION" : 0,
                        "NORMAL" : 1,
                        "TEXCOORD_0" : 2
                    },
                    "indices" : 3,
                    "material" : 0
                },
                {
                    "attributes" : {
                        "POSITION" : 4,
                        "NORMAL" : 5,
                        "TEXCOORD_0" : 6
                    },
                    "indices" : 7,
                    "material" : 1
                },
                {
                    "attributes" : {
                        "POSITION" : 8,
                        "NORMAL" : 9,
                        "TEXCOORD_0" : 10
                    },
                    "indices" : 11,
                    "material" : 2
                },
                {
                    "attributes" : {
                        "POSITION" : 12,
                        "NORMAL" : 13,
                        "TEXCOORD_0" : 14
                    },
                    "indices" : 15,
                    "material" : 3
                },
                {
                    "attributes" : {
                        "POSITION" : 16,
                        "NORMAL" : 17,
                        "TEXCOORD_0" : 18
                    },
                    "indices" : 19,
                    "material" : 4
                },
                {
                    "attributes" : {
                        "POSITION" : 20,
                        "NORMAL" : 21,
                        "TEXCOORD_0" : 22
                    },
                    "indices" : 23,
                    "material" : 5
                },
                {
                    "attributes" : {
                        "POSITION" : 24,
                        "NORMAL" : 25,
                        "TEXCOORD_0" : 26
                    },
                    "indices" : 27,
                    "material" : 6
                },
                {
                    "attributes" : {
                        "POSITION" : 28,
                        "NORMAL" : 29,
                        "TEXCOORD_0" : 30
                    },
                    "indices" : 31,
                    "material" : 7
                }
            ]
        }
    ],
    "accessors" : [
        {
            "bufferView" : 0,
            "componentType" : 5126,
            "count" : 73,
            "max" : [
                20.69379425048828,
                32.557090759277344,
                0.7713602185249329
            ],
            "min" : [
                -21.766000747680664,
                4.9272918701171875,
                -1.6584126949310303
            ],
            "type" : "VEC3"
        },
        {
            "bufferView" : 1,
            "componentType" : 5126,
            "count" : 73,
            "type" : "VEC3"
        },
        {
            "bufferView" : 2,
            "componentType" : 5126,
            "count" : 73,
            "type" : "VEC2"
        },
        {
            "bufferView" : 3,
            "componentType" : 5123,
            "count" : 192,
            "type" : "SCALAR"
        },
        {
            "bufferView" : 4,
            "componentType" : 5126,
            "count" : 96,
            "max" : [
                3.8550567626953125,
                40.236148834228516,
                3.1468474864959717
            ],
            "min" : [
                -3.589935779571533,
                37.968528747558594,
                1.9726505279541016
            ],
            "type" : "VEC3"
        },
        {
            "bufferView" : 5,
            "componentType" : 5126,
            "count" : 96,
            "type" : "VEC3"
        },
        {
            "bufferView" : 6,
            "componentType" : 5126,
            "count" : 96,
            "type" : "VEC2"
        },
        {
            "bufferView" : 7,
            "componentType" : 5123,
            "count" : 144,
            "type" : "SCALAR"
        },
        {
            "bufferView" : 8,
            "componentType" : 5126,
            "count" : 160,
            "max" : [
                17.497085571289062,
                35.01557159423828,
                4.949592113494873
            ],
            "min" : [
                -17.839553833007812,
                30.255842208862305,
                -5.930549144744873
            ],
            "type" : "VEC3"
        },
        {
            "bufferView" : 9,
            "componentType" : 5126,
            "count" : 160,
            "type" : "VEC3"
        },
        {
            "bufferView" : 10,
            "componentType" : 5126,
            "count" : 160,
            "type" : "VEC2"
        },
        {
            "bufferView" : 11,
            "componentType" : 5123,
            "count" : 216,
            "type" : "SCALAR"
        },
        {
            "bufferView" : 12,
            "componentType" : 5126,
            "count" : 48,
            "max" : [
                4.463763236999512,
                25.00604248046875,
                4.833023548126221
            ],
            "min" : [
                -4.814953804016113,
                23.938318252563477,
                -3.9759299755096436
            ],
            "type" : "VEC3"
        },
        {
            "bufferView" : 13,
            "componentType" : 5126,
            "count" : 48,
            "type" : "VEC3"
        },
        {
            "bufferView" : 14,
            "componentType" : 5126,
            "count" : 48,
            "type" : "VEC2"
        },
        {
            "bufferView" : 15,
            "componentType" : 5123,
            "count" : 84,
            "type" : "SCALAR"
        },
        {
            "bufferView" : 16,
            "componentType" : 5126,
            "count" : 667,
            "max" : [
                22.080495834350586,
                46.751380920410156,
                9.719026565551758
            ],
            "min" : [
                -22.408958435058594,
                15.007909774780273,
                -11.552156448364258
            ],
            "type" : "VEC3"
        },
        {
            "bufferView" : 17,
            "componentType" : 5126,
            "count" : 667,
            "type" : "VEC3"
        },
        {
            "bufferView" : 18,
            "componentType" : 5126,
            "count" : 667,
            "type" : "VEC2"
        },
        {
            "bufferView" : 19,
            "componentType" : 5123,
            "count" : 1080,
            "type" : "SCALAR"
        },
        {
            "bufferView" : 20,
            "componentType" : 5126,
            "count" : 176,
            "max" : [
                0.30562829971313477,
                43.38528823852539,
                0.0996161699295044
            ],
            "min" : [
                -9.313557624816895,
                37.378204345703125,
                -1.4736627340316772
            ],
            "type" : "VEC3"
        },
        {
            "bufferView" : 21,
            "componentType" : 5126,
            "count" : 176,
            "type" : "VEC3"
        },
        {
            "bufferView" : 22,
            "componentType" : 5126,
            "count" : 176,
            "type" : "VEC2"
        },
        {
            "bufferView" : 23,
            "componentType" : 5123,
            "count" : 348,
            "type" : "SCALAR"
        },
        {
            "bufferView" : 24,
            "componentType" : 5126,
            "count" : 66,
            "max" : [
                4.8758416175842285,
                33.09893035888672,
                4.5947442054748535
            ],
            "min" : [
                -5.315682411193848,
                19.03514862060547,
                -4.213496685028076
            ],
            "type" : "VEC3"
        },
        {
            "bufferView" : 25,
            "componentType" : 5126,
            "count" : 66,
            "type" : "VEC3"
        },
        {
            "bufferView" : 26,
            "componentType" : 5126,
            "count" : 66,
            "type" : "VEC2"
        },
        {
            "bufferView" : 27,
            "componentType" : 5123,
            "count" : 192,
            "type" : "SCALAR"
        },
        {
            "bufferView" : 28,
            "componentType" : 5126,
            "count" : 160,
            "max" : [
                4.574670791625977,
                42.821807861328125,
                3.8667869567871094
            ],
            "min" : [
                -4.495934963226318,
                34.55137634277344,
                -4.9763994216918945
            ],
            "type" : "VEC3"
        },
        {
            "bufferView" : 29,
            "componentType" : 5126,
            "count" : 160,
            "type" : "VEC3"
        },
        {
            "bufferView" : 30,
            "componentType" : 5126,
            "count" : 160,
            "type" : "VEC2"
        },
        {
            "bufferView" : 31,
            "componentType" : 5123,
            "count" : 504,
            "type" : "SCALAR"
        }
    ],
    "bufferViews" : [
        {
            "buffer" : 0,
            "byteLength" : 876,
            "byteOffset" : 0
        },
        {
            "buffer" : 0,
            "byteLength" : 876,
            "byteOffset" : 876
        },
        {
            "buffer" : 0,
            "byteLength" : 584,
            "byteOffset" : 1752
        },
        {
            "buffer" : 0,
            "byteLength" : 384,
            "byteOffset" : 2336
        },
        {
            "buffer" : 0,
            "byteLength" : 1152,
            "byteOffset" : 2720
        },
        {
            "buffer" : 0,
            "byteLength" : 1152,
            "byteOffset" : 3872
        },
        {
            "buffer" : 0,
            "byteLength" : 768,
            "byteOffset" : 5024
        },
        {
            "buffer" : 0,
            "byteLength" : 288,
            "byteOffset" : 5792
        },
        {
            "buffer" : 0,
            "byteLength" : 1920,
            "byteOffset" : 6080
        },
        {
            "buffer" : 0,
            "byteLength" : 1920,
            "byteOffset" : 8000
        },
        {
            "buffer" : 0,
            "byteLength" : 1280,
            "byteOffset" : 9920
        },
        {
            "buffer" : 0,
            "byteLength" : 432,
            "byteOffset" : 11200
        },
        {
            "buffer" : 0,
            "byteLength" : 576,
            "byteOffset" : 11632
        },
        {
            "buffer" : 0,
            "byteLength" : 576,
            "byteOffset" : 12208
        },
        {
            "buffer" : 0,
            "byteLength" : 384,
            "byteOffset" : 12784
        },
        {
            "buffer" : 0,
            "byteLength" : 168,
            "byteOffset" : 13168
        },
        {
            "buffer" : 0,
            "byteLength" : 8004,
            "byteOffset" : 13336
        },
        {
            "buffer" : 0,
            "byteLength" : 8004,
            "byteOffset" : 21340
        },
        {
            "buffer" : 0,
            "byteLength" : 5336,
            "byteOffset" : 29344
        },
        {
            "buffer" : 0,
            "byteLength" : 2160,
            "byteOffset" : 34680
        },
        {
            "buffer" : 0,
            "byteLength" : 2112,
            "byteOffset" : 36840
        },
        {
            "buffer" : 0,
            "byteLength" : 2112,
            "byteOffset" : 38952
        },
        {
            "buffer" : 0,
            "byteLength" : 1408,
            "byteOffset" : 41064
        },
        {
            "buffer" : 0,
            "byteLength" : 696,
            "byteOffset" : 42472
        },
        {
            "buffer" : 0,
            "byteLength" : 792,
            "byteOffset" : 43168
        },
        {
            "buffer" : 0,
            "byteLength" : 792,
            "byteOffset" : 43960
        },
        {
            "buffer" : 0,
            "byteLength" : 528,
            "byteOffset" : 44752
        },
        {
            "buffer" : 0,
            "byteLength" : 384,
            "byteOffset" : 45280
        },
        {
            "buffer" : 0,
            "byteLength" : 1920,
            "byteOffset" : 45664
        },
        {
            "buffer" : 0,
            "byteLength" : 1920,
            "byteOffset" : 47584
        },
        {
            "buffer" : 0,
            "byteLength" : 1280,
            "byteOffset" : 49504
        },
        {
            "buffer" : 0,
            "byteLength" : 1008,
            "byteOffset" : 50784
        }
    ],
    "buffers" : [
        {
            "byteLength" : 51792,
            "uri" : "data:application/octet-stream;base64,"
        }
    ]
}
